<?xml version="1.0" encoding="us-ascii" standalone="no"?><svg xmlns="http://www.w3.org/2000/svg" xmlns:xlink="http://www.w3.org/1999/xlink" contentStyleType="text/css" height="268px" preserveAspectRatio="none" style="width:1121px;height:268px;background:#FFFFFF;" version="1.1" viewBox="0 0 1121 268" width="1121px" zoomAndPan="magnify"><defs/><g><text fill="#000000" font-family="sans-serif" font-size="14" font-weight="bold" lengthAdjust="spacing" textLength="257" x="425" y="22.9951">Banco de Dados e Componentes</text><!--cluster AWS--><g id="cluster_AWS"><polygon fill="none" points="16,53.2969,26,43.2969,1104,43.2969,1104,241.2969,1094,251.2969,16,251.2969,16,53.2969" style="stroke:#181818;stroke-width:1.0;"/><line style="stroke:#181818;stroke-width:1.0;" x1="1094" x2="1104" y1="53.2969" y2="43.2969"/><line style="stroke:#181818;stroke-width:1.0;" x1="16" x2="1094" y1="53.2969" y2="53.2969"/><line style="stroke:#181818;stroke-width:1.0;" x1="1094" x2="1094" y1="53.2969" y2="251.2969"/><text fill="#000000" font-family="sans-serif" font-size="14" font-weight="bold" lengthAdjust="spacing" textLength="36" x="538" y="69.292">AWS</text></g><!--entity user_db--><g id="elem_user_db"><rect fill="#F1F1F1" height="46.2969" rx="2.5" ry="2.5" style="stroke:#181818;stroke-width:0.5;" width="192" x="884" y="83.2969"/><rect fill="#F1F1F1" height="10" style="stroke:#181818;stroke-width:0.5;" width="15" x="1056" y="88.2969"/><rect fill="#F1F1F1" height="2" style="stroke:#181818;stroke-width:0.5;" width="4" x="1054" y="90.2969"/><rect fill="#F1F1F1" height="2" style="stroke:#181818;stroke-width:0.5;" width="4" x="1054" y="94.2969"/><text fill="#000000" font-family="sans-serif" font-size="14" lengthAdjust="spacing" textLength="152" x="899" y="116.292">User DB (PostgreSQL)</text></g><!--entity scheduler_db--><g id="elem_scheduler_db"><rect fill="#F1F1F1" height="46.2969" rx="2.5" ry="2.5" style="stroke:#181818;stroke-width:0.5;" width="230" x="596" y="83.2969"/><rect fill="#F1F1F1" height="10" style="stroke:#181818;stroke-width:0.5;" width="15" x="806" y="88.2969"/><rect fill="#F1F1F1" height="2" style="stroke:#181818;stroke-width:0.5;" width="4" x="804" y="90.2969"/><rect fill="#F1F1F1" height="2" style="stroke:#181818;stroke-width:0.5;" width="4" x="804" y="94.2969"/><text fill="#000000" font-family="sans-serif" font-size="14" lengthAdjust="spacing" textLength="190" x="611" y="116.292">Scheduler DB (PostgreSQL)</text></g><!--entity appointments_db--><g id="elem_appointments_db"><rect fill="#F1F1F1" height="46.2969" rx="2.5" ry="2.5" style="stroke:#181818;stroke-width:0.5;" width="257" x="280.5" y="83.2969"/><rect fill="#F1F1F1" height="10" style="stroke:#181818;stroke-width:0.5;" width="15" x="517.5" y="88.2969"/><rect fill="#F1F1F1" height="2" style="stroke:#181818;stroke-width:0.5;" width="4" x="515.5" y="90.2969"/><rect fill="#F1F1F1" height="2" style="stroke:#181818;stroke-width:0.5;" width="4" x="515.5" y="94.2969"/><text fill="#000000" font-family="sans-serif" font-size="14" lengthAdjust="spacing" textLength="217" x="295.5" y="116.292">Appointments DB (PostgreSQL)</text></g><!--entity cache--><g id="elem_cache"><rect fill="#F1F1F1" height="46.2969" rx="2.5" ry="2.5" style="stroke:#181818;stroke-width:0.5;" width="137" x="64.5" y="83.2969"/><rect fill="#F1F1F1" height="10" style="stroke:#181818;stroke-width:0.5;" width="15" x="181.5" y="88.2969"/><rect fill="#F1F1F1" height="2" style="stroke:#181818;stroke-width:0.5;" width="4" x="179.5" y="90.2969"/><rect fill="#F1F1F1" height="2" style="stroke:#181818;stroke-width:0.5;" width="4" x="179.5" y="94.2969"/><text fill="#000000" font-family="sans-serif" font-size="14" lengthAdjust="spacing" textLength="97" x="79.5" y="116.292">Cache (Redis)</text></g><!--entity user_db_url--><g id="elem_user_db_url"><rect fill="#F1F1F1" height="46.2969" rx="2.5" ry="2.5" style="stroke:#181818;stroke-width:0.5;" width="215" x="872.5" y="189.2969"/><rect fill="#F1F1F1" height="10" style="stroke:#181818;stroke-width:0.5;" width="15" x="1067.5" y="194.2969"/><rect fill="#F1F1F1" height="2" style="stroke:#181818;stroke-width:0.5;" width="4" x="1065.5" y="196.2969"/><rect fill="#F1F1F1" height="2" style="stroke:#181818;stroke-width:0.5;" width="4" x="1065.5" y="200.2969"/><text fill="#000000" font-family="sans-serif" font-size="14" lengthAdjust="spacing" textLength="175" x="887.5" y="222.292">URL de Conex&#227;o User DB</text></g><!--entity scheduler_db_url--><g id="elem_scheduler_db_url"><rect fill="#F1F1F1" height="46.2969" rx="2.5" ry="2.5" style="stroke:#181818;stroke-width:0.5;" width="253" x="584.5" y="189.2969"/><rect fill="#F1F1F1" height="10" style="stroke:#181818;stroke-width:0.5;" width="15" x="817.5" y="194.2969"/><rect fill="#F1F1F1" height="2" style="stroke:#181818;stroke-width:0.5;" width="4" x="815.5" y="196.2969"/><rect fill="#F1F1F1" height="2" style="stroke:#181818;stroke-width:0.5;" width="4" x="815.5" y="200.2969"/><text fill="#000000" font-family="sans-serif" font-size="14" lengthAdjust="spacing" textLength="213" x="599.5" y="222.292">URL de Conex&#227;o Scheduler DB</text></g><!--entity appointments_db_url--><g id="elem_appointments_db_url"><rect fill="#F1F1F1" height="46.2969" rx="2.5" ry="2.5" style="stroke:#181818;stroke-width:0.5;" width="280" x="269" y="189.2969"/><rect fill="#F1F1F1" height="10" style="stroke:#181818;stroke-width:0.5;" width="15" x="529" y="194.2969"/><rect fill="#F1F1F1" height="2" style="stroke:#181818;stroke-width:0.5;" width="4" x="527" y="196.2969"/><rect fill="#F1F1F1" height="2" style="stroke:#181818;stroke-width:0.5;" width="4" x="527" y="200.2969"/><text fill="#000000" font-family="sans-serif" font-size="14" lengthAdjust="spacing" textLength="240" x="284" y="222.292">URL de Conex&#227;o Appointments DB</text></g><!--entity cache_url--><g id="elem_cache_url"><rect fill="#F1F1F1" height="46.2969" rx="2.5" ry="2.5" style="stroke:#181818;stroke-width:0.5;" width="202" x="32" y="189.2969"/><rect fill="#F1F1F1" height="10" style="stroke:#181818;stroke-width:0.5;" width="15" x="214" y="194.2969"/><rect fill="#F1F1F1" height="2" style="stroke:#181818;stroke-width:0.5;" width="4" x="212" y="196.2969"/><rect fill="#F1F1F1" height="2" style="stroke:#181818;stroke-width:0.5;" width="4" x="212" y="200.2969"/><text fill="#000000" font-family="sans-serif" font-size="14" lengthAdjust="spacing" textLength="162" x="47" y="222.292">URL de Conex&#227;o Cache</text></g><!--link user_db to user_db_url--><g id="link_user_db_user_db_url"><path d="M980,129.3569 C980,146.9969 980,165.6369 980,183.2769 " fill="none" id="user_db-to-user_db_url" style="stroke:#181818;stroke-width:1.0;"/><polygon fill="#181818" points="980,189.2769,984,180.2769,980,184.2769,976,180.2769,980,189.2769" style="stroke:#181818;stroke-width:1.0;"/></g><!--link scheduler_db to scheduler_db_url--><g id="link_scheduler_db_scheduler_db_url"><path d="M711,129.3569 C711,146.9969 711,165.6369 711,183.2769 " fill="none" id="scheduler_db-to-scheduler_db_url" style="stroke:#181818;stroke-width:1.0;"/><polygon fill="#181818" points="711,189.2769,715,180.2769,711,184.2769,707,180.2769,711,189.2769" style="stroke:#181818;stroke-width:1.0;"/></g><!--link appointments_db to appointments_db_url--><g id="link_appointments_db_appointments_db_url"><path d="M409,129.3569 C409,146.9969 409,165.6369 409,183.2769 " fill="none" id="appointments_db-to-appointments_db_url" style="stroke:#181818;stroke-width:1.0;"/><polygon fill="#181818" points="409,189.2769,413,180.2769,409,184.2769,405,180.2769,409,189.2769" style="stroke:#181818;stroke-width:1.0;"/></g><!--link cache to cache_url--><g id="link_cache_cache_url"><path d="M133,129.3569 C133,146.9969 133,165.6369 133,183.2769 " fill="none" id="cache-to-cache_url" style="stroke:#181818;stroke-width:1.0;"/><polygon fill="#181818" points="133,189.2769,137,180.2769,133,184.2769,129,180.2769,133,189.2769" style="stroke:#181818;stroke-width:1.0;"/></g><!--SRC=[ZP513e8m44NtFSMaArnu1HE4fGk569UcqecIG8VG4asCf_4eNio2WWtKQ7VJ___alzRafa3WIw4o0eaG2qaQ428gArAe36hEc28hyN2NShWoi2VhPU1RZJN4ImZMfCsnndIpcd4G6XehxELXx4-p4ygc-1BIlUf9XbL5kJAb7RGtB1o39ny9kno216MkNu6ilM4JecJLFaLanylZJl0cTA7sJLtyYhcW4xP_5enuVOZ_hEcmFxXTfCkyMM0kwQpcYmcRstSmUI56hGRprxRTJ_IkJwqRUm80]--></g></svg>